<svg xmlns="http://www.w3.org/2000/svg" viewBox="0 0 538.55 400.26"><defs><style>.cls-1{fill:#23185b;}.cls-2{fill:#312783;}.cls-3{fill:#004a9a;}.cls-4{fill:#009640;}.cls-5{fill:#ad151d;}.cls-6{fill:#be1622;}.cls-7{fill:#c61623;}.cls-8{fill:#a3195b;}.cls-9{fill:#8b2852;}.cls-10{fill:#a33951;}.cls-11{fill:#c4ac9d;}.cls-12{fill:#b7a294;}.cls-13{fill:#95c11f;}.cls-14{fill:#eed485;}.cls-15{fill:#662483;}.cls-16{fill:#1d71b8;}</style></defs><g id="Layer_6" data-name="Layer 6"><path class="cls-1" d="M267.79,242.31a16.42,16.42,0,0,0,8.46-8.75,13.25,13.25,0,0,0-1.19-12.05c-3.87-5.61-11.59-6.61-18.3-6.27a83.55,83.55,0,0,0-42.47,14.22c-2.47,1.68-4.94,3.59-6.24,6.31-1.9,4-.79,9,1.92,12.42s6.78,5.58,10.93,6.88C236.89,260.09,252.05,249.63,267.79,242.31Z" transform="translate(-14.19 -126.19)"/><path class="cls-2" d="M198.8,234.41a65.85,65.85,0,0,1,28-27.56,56.75,56.75,0,0,1,38.57-4.59,31.41,31.41,0,0,1,12.05,5.46,12.39,12.39,0,0,1,4.26,5.51,6.6,6.6,0,0,1-1.17,6.62c-1.63,1.66-4.12,2-6.42,2.21-3.74.37-7.64.73-11.18-.6-2.07-.78-3.9-2.1-5.94-3a14.82,14.82,0,0,0-10.12-.55c-7.9,2.43-12.31,10.79-18.85,15.91C220.86,239.43,210.81,240.89,198.8,234.41Z" transform="translate(-14.19 -126.19)"/><path class="cls-3" d="M282.33,285.86a26.36,26.36,0,0,0-2.86-40.13c-3.61-2.62-8.08-4.51-10.09-8.53-1.73-3.47-1.11-7.68.24-11.3,1.29-3.47,3.32-6.8,6.42-8.75,4.25-2.67,9.83-2.28,14.47-.34,12.82,5.33,19.3,21.19,17.13,35.08s-11.34,25.72-22.12,34.48C283.11,288.33,278.78,289.29,282.33,285.86Z" transform="translate(-14.19 -126.19)"/><path class="cls-2" d="M263.05,301.41a45.28,45.28,0,0,0,26.1-24.86c2.71-6.45,3.87-14,1-20.44a31,31,0,0,0-6.56-8.79c-6.13-6.22-13.33-11.88-21.79-13.68s-18.38,1.21-22.54,8.9a42.93,42.93,0,0,1-2.79,5.29c-1.2,1.58-3.21,2.79-5.11,2.24a9.28,9.28,0,0,1-2.36-1.31c-6.56-4.19-15.85-1.52-20.66,4.62s-5.65,14.74-4,22.43a40.26,40.26,0,0,0,23.43,28.37C239.46,309,252.32,305.24,263.05,301.41Z" transform="translate(-14.19 -126.19)"/><path class="cls-3" d="M216.93,248.54a28.74,28.74,0,0,0-2.41-13,9.59,9.59,0,0,0-2.46-3.62,8.38,8.38,0,0,0-4.78-1.62A19.82,19.82,0,0,0,192,236.52a29.44,29.44,0,0,0-7.39,15.3,38.51,38.51,0,0,0,4.48,25.79,72.64,72.64,0,0,0,5.39,7.73c4.43,5.79,9,11.59,14.78,16s13,7.28,20.12,6.44a4.43,4.43,0,0,0,2.35-.81,4.79,4.79,0,0,0,1.26-2.13c6-16.54.57-35.14-7-51-1.13-2.37-2.4-4.82-4.53-6.34S216,245.68,216.93,248.54Z" transform="translate(-14.19 -126.19)"/></g><g id="Layer_8" data-name="Layer 8"><path class="cls-4" d="M292,358a243.42,243.42,0,0,1-37.82,2.35c-5.32-.08-11.61-.82-14.08-4.7,2.16-6.92,16.16-5.42,21-11.33l-34.84,2.77c-5.46.43-11.43.77-16-1.76a3.2,3.2,0,0,1-1.78-1.84c-.27-1.33,1.31-2.35,2.7-3.05L233.83,329c-12.74.11-24.56,4.82-36.63,8.06-4.37,1.18-9.44,2.11-13.38.09-4.91-2.5-5.37-8.57-2.51-12.63s8-6.59,13-8.95c-8.26,2.32-16.75,4.42-25.51,4.66s-17.92-1.55-24.65-6.22c7.77-6.7,18.92-10.67,30.26-10.78-17.89,6-38.3,1.19-56.86-3.64-3.64-.94-8.18-3.17-7-6.13.61-1.59,2.67-2.42,4.53-3.08l23.86-8.48c-22.94,5.32-49,1.1-68-11a61.77,61.77,0,0,1,21.85-6.19C73,269,50.21,262,38.46,248.13a49.69,49.69,0,0,1,27.31-7l-34.9-5.37c-4.73-.73-9.72-1.56-13.29-4.23s-4.83-7.81-1.28-10.41c1.88-1.38,4.57-1.72,7.1-1.86A66.62,66.62,0,0,1,54.26,225a34.36,34.36,0,0,1-14.51-10.4c-1.3-1.64-2.43-3.49-2.35-5.43A4.48,4.48,0,0,1,41.51,205c2.58-.18,4.64,1.67,6.24,3.35l15.21,16A11.82,11.82,0,0,1,66.12,216a10,10,0,0,1,9.74-2.39c3,1,4.76,3.59,6.27,6L98.44,245.2c1.16-5.75-3.83-12.79,1.13-16.94,3-2.48,8.19-2.17,11.78-.26s5.94,5,8.15,8l16.69,22.61-.84-9.76c-.15-1.8-.17-3.88,1.51-5,3-2.09,7.32,1,9.48,3.81l30.9,39.67c.1-4.15-3.51-7.67-6-11.29s-3.7-8.86.25-11.41c2.9-1.87,7.36-1.25,10.33.6s4.81,4.65,6.56,7.35l18.54,28.71c-.65-3-2.47-5.83-2.82-8.88s1.56-6.66,5.26-7c3.32-.33,6.06,2.05,8.14,4.22a322.58,322.58,0,0,1,25.73,30.33c-1.78-3.24-3.6-6.69-3.13-10.2a7.83,7.83,0,0,1,8.46-6.43,11.83,11.83,0,0,1,6.11,3.23c8.91,7.65,15.06,17.43,17.43,27.78l-.87-6.07a4.21,4.21,0,0,1,.23-2.74c1.34-2.34,5.81-1.56,8.12.23s4.14,4.34,7.23,4.93c1.39.26,3.08.16,4,1.07a2.91,2.91,0,0,1,.67,1.62C292.81,340.86,293,348.5,292,358Z" transform="translate(-14.19 -126.19)"/></g><g id="Layer_4" data-name="Layer 4"><path class="cls-5" d="M331.34,338.91A97.6,97.6,0,0,1,298,310.83c-3.34-4.41-6.38-9.22-7.79-14.63s-1-11.52,2.16-15.86c1.25-1.75,2.91-3.19,3.77-5.19,1.38-3.2.29-7.31-2.18-9.81a11.54,11.54,0,0,0-9.59-3.06c7.38-4.15,16.1-7.27,24.2-4.35,4.87,1.75,8.91,5.5,12.47,9.49a91.93,91.93,0,0,1,16.54,26.78c3.56,8.86,5.83,18.43,11.09,26.33l1.75-1a6.44,6.44,0,0,0-3.06,4" transform="translate(-14.19 -126.19)"/><path class="cls-6" d="M331.85,339.15c-13.84-6.26-24.53-18.21-33.59-31-4.77-6.75-10.41-13.69-7.89-21.45,1.15-3.54,3.54-6.42,5.1-9.77s2.14-7.75-.17-10.7-6.23-3.19-9.67-2.91c-11.51.91-22.85,6-30.18,15.22s-10.06,22.91-5.54,34.39c4.31,11,14.27,18.49,24.6,23s21.37,6.75,31.88,10.79c3,1.16,6,2.47,8.91,3.93a37.8,37.8,0,0,1,8.57,5.5" transform="translate(-14.19 -126.19)"/><path class="cls-7" d="M278.26,277.88a7.83,7.83,0,0,0,3.71-2.29c.89-1.2,1-3.25-.22-4.19s-2.9-.31-4.18.45a12.19,12.19,0,0,0-5.26,5.28c-1,2.38-.68,5.64,1.38,7.22s4.74,1,6.95,0a12.64,12.64,0,0,0,5.63-4.44,8,8,0,0,0,.87-7.25c-1.64-3.9-6.54-5.07-10.36-4.06-6.61,1.73-11.42,8.32-12.38,15.5s1.55,14.7,5.83,20.55c8.4,11.47,22.36,16.41,32.75,25.85,3.5,3.18,6.58,6.87,10.27,9.78,4.8,3.79,10.67,6.35,13.93,11.27-.76-4.17,1.89-8,4.09-12.2-8-5.85-17.14-9.54-25.58-14.58a99.32,99.32,0,0,1-29.07-26.62c-3.23-4.43-6.17-9.23-7.64-14.57a11.6,11.6,0,0,1-.35-6.14c1.22-4.39,6.07-6.08,10.32-7a6.23,6.23,0,0,1,4,.08c2.06,1,2.74,4,1.87,6.15a9.11,9.11,0,0,1-4.86,4.5c-1.24.59-2.83,1-3.9.06-1.23-1.09-.91-3.16-.22-4.64a4.67,4.67,0,0,1,1.94-2.35,2,2,0,0,1,2.69.74C280.94,276,280.07,277.41,278.26,277.88Z" transform="translate(-14.19 -126.19)"/></g><g id="Layer_9" data-name="Layer 9"><path class="cls-8" d="M274.92,380.62a109.67,109.67,0,0,1-46.49-11.72c-5.5-2.74-10.93-6-15.13-10.67s-7-10.85-6.37-16.62c.27-2.3,1.07-4.51.83-6.89-.38-3.8-3.6-7.32-7.26-8.6a12.19,12.19,0,0,0-10.73,1.56c4.81-7.59,11.43-14.81,20.65-15.8,5.54-.6,11.36,1.16,16.85,3.39a107.68,107.68,0,0,1,29.87,18.44c8.07,7,15.3,15.33,24.47,20.6l1.14-1.8a6.93,6.93,0,0,0-.77,5.4" transform="translate(-14.19 -126.19)"/><path class="cls-9" d="M275.53,380.61c-16.43.44-32.89-6.21-48.29-14.5-8.09-4.36-17.12-8.5-18.84-17.33-.78-4,0-8-.34-12s-2.07-8.64-5.84-10.44-7.58-.16-10.7,1.74c-10.43,6.38-18.5,16.75-20.55,29.33s2.6,27.31,13,36.45c9.89,8.72,23.33,11.37,35.53,10.92s23.84-3.54,35.94-4.58A105.42,105.42,0,0,1,266,399.8a41.65,41.65,0,0,1,11,1.33" transform="translate(-14.19 -126.19)"/><path class="cls-10" d="M192.27,345.92a8,8,0,0,0,2.29-4c.22-1.61-.78-3.66-2.42-4s-2.91,1.08-3.72,2.44a12.69,12.69,0,0,0-2.2,7.7c.28,2.82,2.35,5.86,5.13,6.43s5-1.28,6.6-3.29a13.08,13.08,0,0,0,3-7.06,9.23,9.23,0,0,0-3-7.54c-3.62-3.05-8.88-1.86-12,.95-5.34,4.85-6.42,13.61-3.52,21.13s9.26,13.71,16.42,17.42c14,7.27,29.9,5.48,44.75,9.81,5,1.46,9.88,3.61,14.92,4.72,6.56,1.44,13.48,1.16,19.18,4.44-2.94-3.74-2.44-8.73-2.59-13.94-10.67-1.95-21.3-1.21-32-2.15a112,112,0,0,1-41.66-12.32c-5.42-2.81-10.75-6.13-15-10.67a13.7,13.7,0,0,1-3.58-5.87c-1.18-4.89,2.53-8.87,6.08-11.76a6.32,6.32,0,0,1,3.8-1.81c2.48,0,4.71,2.62,5,5.15a9.5,9.5,0,0,1-2.21,6.74c-.87,1.17-2.15,2.33-3.68,1.91-1.74-.48-2.53-2.67-2.66-4.45a4.93,4.93,0,0,1,.59-3.23,2.16,2.16,0,0,1,2.95-.56C193.79,342.77,193.73,344.59,192.27,345.92Z" transform="translate(-14.19 -126.19)"/></g><g id="Layer_2" data-name="Layer 2"><path class="cls-11" d="M349.35,231.94l54.81,70.72q9.85,12.7,19.72,25.42c38.34,49.39,62.85,90.56,102,139.81,6.71,11.44,15.34,23.47,18.41,30.24,4.14,9.15,6.09,19.15,8.46,28.32-86.21-43.63-176.36-84.48-273.3-94-35.74-3.49-73.65-3.1-102.17-19.78,4.16-10.52,17.42-13.47,27.75-18.37,6.13-2.91,11.66-6.93,17.15-10.93C241,369.71,259.86,356,278.4,341.87c7-5.3,13.9-10.68,19.88-17,7.18-7.64,12.83-16.54,18.06-25.59,11.72-20.25,21.58-41.45,31.43-62.63C349.05,233.86,350.25,230.35,349.35,231.94Z" transform="translate(-14.19 -126.19)"/><path class="cls-12" d="M552.27,524.26c-4.77-11.63-15.84-19.27-26.62-25.74C502,484.29,476.94,472.45,452,460.64l-57.31-27.12c-11.27-5.33-22.6-10.69-34.56-14.21-22.8-6.72-47.06-6.56-70.28-11.59-18.21-4-35.6-11.05-53.78-15.11a32.82,32.82,0,0,0-11-1.05c-3.83.46-7.41,2.13-10.9,3.78l-36.91,17.38c27.69,16.17,73.36,19.84,109.38,32C374.26,474.38,462.84,501.12,552.27,524.26Z" transform="translate(-14.19 -126.19)"/></g><g id="Layer_7" data-name="Layer 7"><path class="cls-13" d="M192,381.17c.92-13,7.28-25.28,16.16-34.77s20.16-16.41,31.94-21.76a81.29,81.29,0,0,1,20.79-6.74,28.2,28.2,0,0,1,12.47.37c4,1.21,7.74,3.93,9.41,7.82,2.07,4.81.67,10.59-2.37,14.84s-7.51,7.2-12,9.8c-10.11,5.83-21,10.28-31.17,15.93s-20,12.72-26.48,22.5c-.84,1.28-1.74,2.69-3.19,3.14a5,5,0,0,1-2.68-.05C199.55,391,195.56,386.69,192,381.17Z" transform="translate(-14.19 -126.19)"/><path class="cls-13" d="M193.73,392.73c-8.43,5-11.88,13.8-13,21.77-3.14,21.48,5.51,42,20.38,57.74a39.8,39.8,0,0,0,11.8,9.15,26,26,0,0,0,16.51,2,15,15,0,0,0,6.51-3,12.74,12.74,0,0,0,3.1-4.29c3.56-7.55,2.12-16-3.66-21.41-2.61-2.44-6-4.26-9.09-6.29-14.8-9.69-23.76-24.9-24.38-41.39C201.72,403.29,202.14,399.14,193.73,392.73Z" transform="translate(-14.19 -126.19)"/><path class="cls-13" d="M196.54,384.77c.5-5.28-2.45-10.46-6.57-13.75s-9.27-5-14.39-6.14c-17.51-4-36.6-2.57-52.32,6.19s-27.48,25.39-28.39,43.52c-.26,5.19,1.19,11.54,6.12,13s9.54-3,12.8-7.08c9.66-12.07,19.88-24.86,34.33-30.14a41.22,41.22,0,0,1,30.55,1c3.15,1.39,6.17,3.2,9.52,4s7.28.25,9.54-2.38S199.36,385.46,196.54,384.77Z" transform="translate(-14.19 -126.19)"/><path class="cls-13" d="M199.66,387c10.83-6.65,23.26-10,35.51-13.34,11.94-3.22,24.14-6.48,36.48-5.71a45.18,45.18,0,0,1,12.87,2.6c5.35,2,10.17,5.2,14.93,8.37,3.5,2.33,7.21,4.92,8.64,8.9,1.77,4.9-.69,10.66-4.87,13.73s-9.67,3.79-14.8,3.23-10.06-2.28-15-3.73a159.51,159.51,0,0,0-53.28-6c-5.79.3-11.73.87-17.27-.87a7.9,7.9,0,0,1-4.2-2.62A3,3,0,0,1,199.66,387Z" transform="translate(-14.19 -126.19)"/><path class="cls-13" d="M196.63,390.64a15.79,15.79,0,0,0,0,16.48c3.83,6.08,11.18,8.59,17.53,11.85a62.18,62.18,0,0,1,24.2,22.33c2.46,3.95,4.48,8.19,7.21,11.95s6.34,7.11,10.79,8.36c6.83,1.92,14.53-1.86,18-8.09s3-14.29-.46-20.55a49.06,49.06,0,0,0-5.49-7.52c-4-4.79-8-9.58-12.14-14.22a62.93,62.93,0,0,0-9.94-9.44c-8.48-6.08-19.18-8.12-29.56-8.67-3.93-.2-8.16-.32-11.31-2.71C203.71,389.09,200.24,385,196.63,390.64Z" transform="translate(-14.19 -126.19)"/><path class="cls-13" d="M184.26,391.41c-6-.72-12.15,1-17.42,4A59,59,0,0,0,153,407.2c-9.66,10.59-17.63,23.35-19.78,37.59s2.44,30.06,13.84,38.7a15.4,15.4,0,0,0,6.49,3.14c5.49.92,10.88-3.08,13.3-8.14s2.45-10.92,2.1-16.53c-.5-7.74-1.66-15.45-1.67-23.21s1.19-15.74,5.1-22.42a30.33,30.33,0,0,1,24.72-14.78" transform="translate(-14.19 -126.19)"/><ellipse class="cls-14" cx="198.18" cy="391.51" rx="13.18" ry="9.56" transform="translate(-219.35 92.5) rotate(-39.96)"/></g><g id="Layer_5" data-name="Layer 5"><path class="cls-15" d="M329.85,285.45a100.55,100.55,0,0,1-9.22-16.5c-1.07-2.42-2-5.45-.37-7.54,4.25-.76,6.36,5.94,10.61,6.63l-8.82-15c-1.38-2.36-2.82-5-2.39-7.68a1.75,1.75,0,0,1,.64-1.26c.67-.46,1.56,0,2.23.45l11,7.35c-2.73-5.73-7.79-9.89-12.09-14.52-1.56-1.67-3.13-3.73-2.86-6,.35-2.85,3.58-4.58,6.4-4.31s5.3,2,7.62,3.6a44.6,44.6,0,0,1-7.9-10.35c-2-3.89-2.9-8.48-1.75-12.7a21.53,21.53,0,0,1,12.25,10.95c-7-6.57-8.68-17-9.92-26.59-.25-1.89,0-4.49,1.89-4.72a3.66,3.66,0,0,1,2.64,1.27l9.64,8.65a39,39,0,0,1-8.2-33.48,27,27,0,0,1,8,8.3A25.87,25.87,0,0,1,337,143.25a21.57,21.57,0,0,1,9.56,10.58l-4.37-17.12c-.59-2.32-1.18-4.78-.47-7.06s3.27-4.15,5.44-3.2a5.83,5.83,0,0,1,2.51,2.74A28.14,28.14,0,0,1,353,144.56a17.6,17.6,0,0,1,2.66-9.17,5.73,5.73,0,0,1,2.48-2.42,2.53,2.53,0,0,1,3.12.82c.64,1.11.06,2.51-.53,3.66l-5.56,10.88a8.1,8.1,0,0,1,5.24-.67,4.38,4.38,0,0,1,3.35,3.8c.07,1.62-1,3-1.95,4.33l-10.64,13.82c3.4-.92,6.21-5,9.52-3.75,2,.71,2.91,3.15,2.61,5.25a13.87,13.87,0,0,1-2.69,5.7L351.67,190l5.18-2.83c.95-.53,2.09-1.06,3.07-.59,1.78.85,1,3.57-.11,5.24L344.55,215.8c2.29-1,3.46-3.51,4.92-5.56s4.08-3.9,6.31-2.76c1.63.84,2.22,3,1.83,4.82a12.8,12.8,0,0,1-2.65,4.81l-11.86,15.6c1.52-1.05,2.68-2.59,4.28-3.51s4-1,4.95.61c.87,1.42.14,3.25-.61,4.74a191.5,191.5,0,0,1-11.23,19.26c1.4-1.63,2.91-3.32,4.93-4s4.7.14,5.3,2.21a5.65,5.65,0,0,1-.49,3.57,33.1,33.1,0,0,1-11.58,14.86l3.15-1.92a3,3,0,0,1,1.55-.58c1.56,0,2.07,2.23,1.57,3.72s-1.51,3-1.18,4.51c.14.69.55,1.43.24,2.07a1.94,1.94,0,0,1-.74.71A63.29,63.29,0,0,1,329.85,285.45Z" transform="translate(-14.19 -126.19)"/></g><g id="Layer_3" data-name="Layer 3"><path class="cls-16" d="M347.63,253.68a55.43,55.43,0,0,1-4.2-18.61c-.21-4.39.31-9.26,3.43-12.2a16.91,16.91,0,0,1,4.86-2.84c1.11-.49,2.41-1,3.5-.39,1.42.77,1.51,2.8,1.4,4.45l-1.39,20.79a22.56,22.56,0,0,1-.89,5.8C353.71,252.53,352.51,254.26,347.63,253.68Z" transform="translate(-14.19 -126.19)"/><path class="cls-16" d="M347.08,264c1.9,10.48,9.16,19,14.37,28.25,1.44,2.58,3.14,5.55,6,6,2.69.47,5.27-1.76,6.09-4.43s.27-5.6-.61-8.28c-2.62-8-8-14.8-13.38-21.17C357.65,262.21,355.62,260,347.08,264Z" transform="translate(-14.19 -126.19)"/><path class="cls-16" d="M353.72,253.51c5-6.07,12.06-9.79,19-13.32,5.08-2.59,10.24-5.18,15.79-6.44a13.3,13.3,0,0,1,7.73.08c2.46.94,4.55,3.41,4.37,6.1a6.57,6.57,0,0,1-3.38,4.95,19.24,19.24,0,0,1-5.8,1.93,259.7,259.7,0,0,0-38.35,11.78C352.74,257,352.45,255.06,353.72,253.51Z" transform="translate(-14.19 -126.19)"/><path class="cls-16" d="M350.84,256.94c-.39-3.72-3-6.94-6.09-8.9s-6.73-2.83-10.3-3.55-7-1.29-10.58-1.75a34.17,34.17,0,0,0-8.86-.27,19.64,19.64,0,0,0-13,7.76,4.93,4.93,0,0,0-1.14,2.65,5.12,5.12,0,0,0,1.76,3.43,26.39,26.39,0,0,0,20.69,8.2c5.4-.38,10.5-2.48,15.67-4.1,2.88-.9,6-1.66,8.87-.55a3.62,3.62,0,0,0,1.26.36C350.32,260.21,351,258.73,350.84,256.94Z" transform="translate(-14.19 -126.19)"/><path class="cls-16" d="M344,258a155.68,155.68,0,0,1-15.07,6.7c-6.38,2.38-13.08,4.25-18.61,8.27s-9.76,10.91-8.46,17.82c.34,1.77,1.17,3.63,2.77,4.36,1.88.84,4-.19,5.64-1.42,6.14-4.66,9.57-12.29,15.48-17.23,5-4.17,11.36-6.14,16.69-9.8A8.36,8.36,0,0,0,345.8,263,4.2,4.2,0,0,0,344,258Z" transform="translate(-14.19 -126.19)"/><path class="cls-16" d="M350.44,265.24c-2.14,5.38-1.25,11.54.15,17.22s3.3,11.38,3,17.21a47,47,0,0,1-1.58,9c-.43,1.77-1,3.7-2.47,4.66-2.64,1.68-6-.81-8-3.3a41.25,41.25,0,0,1-8.91-19.81c-1-7.28.47-15,4.67-20.86,2.94-4.11,7-7.15,11.05-10.13C349.84,260.07,352,261.41,350.44,265.24Z" transform="translate(-14.19 -126.19)"/><path class="cls-16" d="M355.44,257.8c3.44-8.32,10-14.7,15-22.14a18.39,18.39,0,0,0,2.77-5.68,7.93,7.93,0,0,0-.83-6.18c-2.08-3.14-6.75-3.45-9.88-1.53s-5,5.42-6.37,8.91a28.63,28.63,0,0,0-2.1,8.69c-.2,3.47.52,6.95.49,10.42S353.49,257.52,355.44,257.8Z" transform="translate(-14.19 -126.19)"/><path class="cls-16" d="M350.19,262.35c10.11,2.43,17.66,10.89,25.38,18.12,3.27,3.07,6.89,6.08,11.21,6.91s9.46-1.34,10.54-5.71a9.51,9.51,0,0,0-1.75-7.54,24.27,24.27,0,0,0-5.72-5.4q-5-3.74-10.34-7a42.84,42.84,0,0,0-11.25-5.3C362.14,254.79,355.71,255.56,350.19,262.35Z" transform="translate(-14.19 -126.19)"/><ellipse class="cls-14" cx="349.33" cy="256.91" rx="9.02" ry="6.77" transform="translate(-96.31 174.17) rotate(-42.08)"/></g></svg>