<svg id="Lag_3" data-name="Lag 3" xmlns="http://www.w3.org/2000/svg" viewBox="0 0 473.11 371.57"><defs><style>.cls-1{fill:#f6bc56;}.cls-2{fill:#f6be55;}.cls-3{fill:#fbb03b;}.cls-4,.cls-7{fill:none;}.cls-4{stroke:#f8cb77;stroke-width:3px;}.cls-4,.cls-6,.cls-7,.cls-9{stroke-miterlimit:10;}.cls-5{fill:#f8d3b5;}.cls-6{fill:gray;stroke:gray;}.cls-7{stroke:#000;stroke-width:2px;}.cls-8{fill:#f3cfb5;}.cls-9{fill:#d67f03;stroke:#d67f03;}</style></defs><path class="cls-1" d="M107,365a121.82,121.82,0,0,0,29.83-6.44c5.24-1.95,10.54-4.43,14-8.83,4.26-5.43,4.94-12.79,5-19.68s-.43-14,2.11-20.45c3.08-7.78,10.23-13.38,18-16.49a82,82,0,0,1,24.6-5.58l21-1.47a8.19,8.19,0,0,0,4.35-1.13c2.51-1.82,2.17-5.58,1.73-8.65-1.17-8.2-1.14-16.67,1.11-24.64s6.84-15.43,13.57-20.25c9-6.45,25.11-4.78,27.95-15.48A103.86,103.86,0,0,1,403.57,144c14.61,4.9,28,11.27,37.93,23a73.41,73.41,0,0,1,17.06,41.39h-.12a168,168,0,0,0,11.91,64.91c7.58,19,21.91,35.66,18.16,55.73-2.37,12.69-7.07,25-7.26,37.86-.18,12.07,2.55,24,2.5,36.09s-3.59,25.11-13.33,32.23c-2.72,2-2.42,3.34-2.42,6.72l-.6.32c-10.81-20.26-27.38-37.26-40.9-55.82-15.51,2.42-27.66-.12-42.9-3.89l.09-14.24c0-4.9-5.52-8.55-3.19-12.87,1.86-3.44-7.95-11.44-5-14,11.22-9.72,46.22-14.2,45-29-.62-7.46,15.79-17.61,12-25-5.93-11.58-5.91-16.9,3-34,2.25-4.32-1.78-22.19,6.68-26.83.1.28.21.56.32.83,2.07,5.18,5-3.46,0-1l-.32.17C434.77,207.75,431,185,417.5,173.5c-1.77-6.83-6.05-14.2-10.47-19.7a33.48,33.48,0,0,1,6.37,18.32c-.89-.56-.86-1.62-1.87-1.34-14.58,4-18.69-5-29.22-6.1-20.07-2.07-40.56,9.14-51.59,26-2.36,3.62-4.32,7.51-6.94,10.95s-6,6.5-10.2,7.62c-3.16.84-6.6.53-9.64,1.76-4.32,1.74-7,6.34-7.66,11s1.25,7.89.63,12.51a82.16,82.16,0,0,0-1.06,14.17,27.72,27.72,0,0,0,3.77,13.55,19.7,19.7,0,0,0,12.23,8.65c4,4.58,3.83,11.38,3.4,17.46-1.46,20.54-4.22,39.63-4.17,60.23,0,7.13-2.73,14.49-8.32,18.92-7.24,5.75-17.45,5.59-26.61,4.35s-18.36-1.69-27.49-.22a147.68,147.68,0,0,0-32.79,9.29q-4.81,2-9.48,4.31a10.24,10.24,0,0,0-3.32,2.16,25.27,25.27,0,0,1-2.92,3C173.42,412.53,148.8,437.15,121,458c-8,6-26.85,22.67-33.73,29.3s-14.1,13.07-22.55,17.52-18.33,6.79-27.67,4.79-17.91-8.88-20.3-18.13S17.8,471.15,27,468.64c4.66-1.28,7.81-5.81,9-10.48s.9-9.59,1-14.42.58-9.88,3.22-13.94c4.53-7,13.39-6.72,21.55-8.36,9.8-2,19.27-7.88,23.31-17,2.32-5.25,2.71-11.11,3.38-16.81s1.77-11.56,5.1-16.24C96.7,366.94,102.05,365.11,107,365Z" transform="translate(-16.01 -138.76)"/><path class="cls-1" d="M442.5,226.5c5-2.46,2.07,6.18,0,1-.11-.27-.22-.55-.32-.83Z" transform="translate(-16.01 -138.76)"/><path class="cls-2" d="M107,365a121.82,121.82,0,0,0,29.83-6.44c5.24-1.95,10.54-4.43,14-8.83,4.26-5.43,4.94-12.79,5-19.68s-.43-14,2.11-20.45c3.08-7.78,10.23-13.38,18-16.49a82,82,0,0,1,24.6-5.58l21-1.47a8.19,8.19,0,0,0,4.35-1.13c2.51-1.82,2.17-5.58,1.73-8.65-1.17-8.2-1.14-16.67,1.11-24.64s6.84-15.43,13.57-20.25c9-6.45,25.11-4.78,27.95-15.48A103.86,103.86,0,0,1,403.57,144c14.61,4.9,28,11.27,37.93,23a73.41,73.41,0,0,1,17.06,41.39h-.12a168,168,0,0,0,11.91,64.91c7.58,19,21.91,35.66,18.16,55.73-2.37,12.69-7.07,25-7.26,37.86-.18,12.07,2.55,24,2.5,36.09s-3.59,25.11-13.33,32.23c-2.72,2-2.42,3.34-2.42,6.72l-.6.32c-10.81-20.26-27.38-37.26-40.9-55.82-15.51,2.42-27.66-.12-42.9-3.89l.09-14.24c0-4.9-5.52-8.55-3.19-12.87,1.86-3.44-7.95-11.44-5-14,11.22-9.72,46.22-14.2,45-29-.62-7.46,15.79-17.61,12-25-5.93-11.58-5.91-16.9,3-34,2.25-4.32-1.78-22.19,6.68-26.83.1.28.21.56.32.83,2.07,5.18,5-3.46,0-1l-.32.17C434.77,207.75,431,185,417.5,173.5c-1.77-6.83-6.05-14.2-10.47-19.7a33.48,33.48,0,0,1,6.37,18.32c-.89-.56-.86-1.62-1.87-1.34-14.58,4-18.69-5-29.22-6.1-20.07-2.07-40.56,9.14-51.59,26-2.36,3.62-4.32,7.51-6.94,10.95s-6,6.5-10.2,7.62c-3.16.84-6.6.53-9.64,1.76-4.32,1.74-7,6.34-7.66,11s1.25,7.89.63,12.51a82.16,82.16,0,0,0-1.06,14.17,27.72,27.72,0,0,0,3.77,13.55,19.7,19.7,0,0,0,12.23,8.65c4,4.58,3.83,11.38,3.4,17.46-1.46,20.54-4.22,39.63-4.17,60.23,0,7.13-2.73,14.49-8.32,18.92-7.24,5.75-17.45,5.59-26.61,4.35s-18.36-1.69-27.49-.22a147.68,147.68,0,0,0-32.79,9.29q-4.81,2-9.48,4.31a10.24,10.24,0,0,0-3.32,2.16,25.27,25.27,0,0,1-2.92,3C173.42,412.53,148.8,437.15,121,458c-8,6-26.85,22.67-33.73,29.3s-14.1,13.07-22.55,17.52-18.33,6.79-27.67,4.79-17.91-8.88-20.3-18.13S17.8,471.15,27,468.64c4.66-1.28,7.81-5.81,9-10.48s.9-9.59,1-14.42.58-9.88,3.22-13.94c4.53-7,13.39-6.72,21.55-8.36,9.8-2,19.27-7.88,23.31-17,2.32-5.25,2.71-11.11,3.38-16.81s1.77-11.56,5.1-16.24C96.7,366.94,102.05,365.11,107,365Z" transform="translate(-16.01 -138.76)"/><path class="cls-3" d="M442.5,226.5c5-2.46,2.07,6.18,0,1-.11-.27-.22-.55-.32-.83Z" transform="translate(-16.01 -138.76)"/><path class="cls-3" d="M289,368.43c-1.76-.2-3.4.45-5.09.84a21.46,21.46,0,0,1-5.18.48c-1.74,0-3.47-.15-5.2-.3a5.82,5.82,0,0,1-3.58-1.14c-1.41-1.31-3.53.8-2.12,2.12,2.5,2.33,6.57,2.17,9.76,2.29a30.49,30.49,0,0,0,5.65-.27c1.91-.3,3.81-1.24,5.76-1a1.51,1.51,0,0,0,1.5-1.5,1.53,1.53,0,0,0-1.5-1.5Z" transform="translate(-16.01 -138.76)"/><path class="cls-3" d="M290.44,370.31a206.06,206.06,0,0,1-22.09-.28c-1.93-.12-1.92,2.88,0,3a206.06,206.06,0,0,0,22.09.28c1.93-.08,1.94-3.08,0-3Z" transform="translate(-16.01 -138.76)"/><path class="cls-3" d="M278.15,370.2h-4.83c-.73,0-1.46,0-2.18,0l-.38,0c.38,0-.14-.05-.22-.07-.37-.08.27.12-.08,0-.14-.09-.14-.08,0,0a1,1,0,0,1-.17-.18,1.52,1.52,0,0,0-2.12,0,1.54,1.54,0,0,0,0,2.13c1.16,1.3,3,1.16,4.61,1.15h5.36a1.5,1.5,0,0,0,0-3Z" transform="translate(-16.01 -138.76)"/><path class="cls-3" d="M251.08,369.44a58.41,58.41,0,0,0-26.48,5.63c-1.74.83-.22,3.41,1.52,2.59a55.16,55.16,0,0,1,25-5.22c1.93.05,1.93-2.95,0-3Z" transform="translate(-16.01 -138.76)"/><path class="cls-3" d="M226.49,377.85c4.66.93,8.87-1,13.16-2.53a41.41,41.41,0,0,1,13.75-2.58c1.93,0,1.94-3,0-3A43.64,43.64,0,0,0,240.14,372c-4.08,1.37-8.41,3.87-12.86,3-1.88-.38-2.69,2.51-.79,2.89Z" transform="translate(-16.01 -138.76)"/><path class="cls-3" d="M467.87,438.52c.49,3.52.76,7.44-.87,10.72a1.54,1.54,0,0,0,.54,2.06,1.52,1.52,0,0,0,2-.54c2-4.1,1.79-8.64,1.17-13a1.51,1.51,0,0,0-1.84-1.05,1.54,1.54,0,0,0-1.05,1.85Z" transform="translate(-16.01 -138.76)"/><path class="cls-3" d="M462.59,430.61a41.09,41.09,0,0,1,4.51,12.76,1.51,1.51,0,0,0,1.84,1.05,1.54,1.54,0,0,0,1.05-1.85,43.42,43.42,0,0,0-4.81-13.47c-.93-1.69-3.53-.18-2.59,1.51Z" transform="translate(-16.01 -138.76)"/><path class="cls-3" d="M468.26,444.46a1.5,1.5,0,0,0,0-3,1.5,1.5,0,0,0,0,3Z" transform="translate(-16.01 -138.76)"/><path class="cls-3" d="M314.08,269.63A55.1,55.1,0,0,1,298,263.77c-1.69-.94-3.21,1.65-1.52,2.59a57.69,57.69,0,0,0,16.84,6.16c1.89.37,2.69-2.52.8-2.89Z" transform="translate(-16.01 -138.76)"/><path class="cls-3" d="M311.21,266.31a13.55,13.55,0,0,1-12.63-5.19,1.54,1.54,0,0,0-2.05-.54,1.51,1.51,0,0,0-.54,2.05,16.47,16.47,0,0,0,15.22,6.68,1.54,1.54,0,0,0,1.5-1.5,1.52,1.52,0,0,0-1.5-1.5Z" transform="translate(-16.01 -138.76)"/><path class="cls-3" d="M298.17,259.43l.85-27.5c.14-4.35,0-8.83.5-13.16a10.4,10.4,0,0,1,6-8.58c1.75-.81.23-3.4-1.51-2.59a12.94,12.94,0,0,0-7.06,8.62,32,32,0,0,0-.64,6.55c-.07,2.39-.14,4.79-.22,7.18l-.91,29.48c-.05,1.93,2.95,1.92,3,0Z" transform="translate(-16.01 -138.76)"/><path class="cls-3" d="M296.41,229.89l.3-9.34a1.5,1.5,0,0,0-1.5-1.5,1.53,1.53,0,0,0-1.5,1.5l-.3,9.34a1.52,1.52,0,0,0,1.5,1.5,1.54,1.54,0,0,0,1.5-1.5Z" transform="translate(-16.01 -138.76)"/><path class="cls-3" d="M322.14,206.7c3.2-8.31,8.61-15.55,14.27-22.35s11.9-13.38,19.86-17.47a32,32,0,0,1,13.9-3.71l-1.06-2.56c-7,5.95-16.56,7.46-23.85,13-6.76,5.11-11.29,12.37-16,19.29a76.47,76.47,0,0,1-8.92,11.35,1.5,1.5,0,0,0,2.12,2.12c6.05-6.07,10.22-13.62,15.24-20.49a48.53,48.53,0,0,1,8.47-9.23c3.46-2.8,7.54-4.63,11.6-6.38,4.74-2.06,9.45-4.12,13.42-7.5a1.51,1.51,0,0,0-1.06-2.56c-9.33.22-17.85,4.61-24.84,10.56a87,87,0,0,0-9.9,10.14c-3,3.56-6,7.22-8.63,11.06a66.39,66.39,0,0,0-7.55,14c-.7,1.8,2.2,2.58,2.89.8Z" transform="translate(-16.01 -138.76)"/><path class="cls-2" d="M220.75,372.11a1.5,1.5,0,0,0,0-3,1.5,1.5,0,0,0,0,3Z" transform="translate(-16.01 -138.76)"/><path class="cls-2" d="M221.84,377.75c9.29,1.41,17.85-3.3,26.67-5.36,9.19-2.15,18.69-2.51,28.1-2.28,5.31.14,10.62.47,15.92.8l-.4-3c-17,6.09-35.37,1.32-52.92,3.55a52.21,52.21,0,0,0-14.36,3.81l1.51,2.59a63.25,63.25,0,0,1,21.95-8.11c8.13-1.39,16.11-.77,24.2.51a75.82,75.82,0,0,0,14.64,1.34l-.4-2.94A82.23,82.23,0,0,1,254,371.29l.4,2.95A59.84,59.84,0,0,1,279.3,372l-.4-2.94-3,.44c-1.9.28-1.1,3.17.8,2.89l3-.44a1.49,1.49,0,0,0,1.07-1.65,1.53,1.53,0,0,0-1.47-1.3,62.16,62.16,0,0,0-25.68,2.34,1.51,1.51,0,0,0,.4,3,84.39,84.39,0,0,0,33.53-2.69,1.51,1.51,0,0,0-.4-3c-8.78.31-17.3-2.32-26-2.66a65.46,65.46,0,0,0-23.92,3.56,66.45,66.45,0,0,0-12.35,5.77c-1.7,1-.22,3.34,1.51,2.59,16.37-7.11,34.87-2.59,52.07-4.08a57.35,57.35,0,0,0,14.5-3,1.51,1.51,0,0,0-.4-2.95c-9.27-.58-18.57-1.16-27.86-.68a99.75,99.75,0,0,0-13.78,1.59,106.7,106.7,0,0,0-13.12,3.64c-4.85,1.59-10,3.18-15.13,2.4-1.89-.29-2.71,2.6-.8,2.89Z" transform="translate(-16.01 -138.76)"/><path class="cls-2" d="M313.23,274c-.67-4.49-5.06-6.77-8.77-8.5a15.68,15.68,0,0,1-5.38-3.44c-1.74-2-1.58-4.66-1.12-7.09h-2.89c1.71,5.13,3.81,10.85,8.75,13.71,2.83,1.64,6.11,1.87,9.18,2.8,2.27.7,5.6,2.66,5.15,5.51l2.51-.66c-3.34-3.6-7-7.27-11.48-9.39a17.73,17.73,0,0,0-6.88-1.76c-2.05-.08-4.87.52-6.54-1l-.67,2.5c2.75-.94,5.45.86,7.76,2.17q4,2.28,8,4.67a1.5,1.5,0,0,0,1.51-2.59c-3-1.83-6.11-3.64-9.21-5.36-2.69-1.49-5.77-2.84-8.85-1.78a1.52,1.52,0,0,0-.67,2.51c1.77,1.57,4,1.86,6.25,1.85a17.73,17.73,0,0,1,7.08,1.05c4.62,1.86,8.26,5.64,11.58,9.22a1.5,1.5,0,0,0,2.5-.66c.49-3.06-1.05-5.62-3.48-7.39-2.68-2-6-2.26-9.13-3.1a11.48,11.48,0,0,1-7-5.12,35.37,35.37,0,0,1-3.47-8c-.43-1.29-2.6-1.56-2.89,0-.5,2.61-.72,5.33.42,7.81a11.19,11.19,0,0,0,4.85,4.8c3.51,2,9.29,3.31,10,8,.29,1.91,3.18,1.1,2.89-.79Z" transform="translate(-16.01 -138.76)"/><path class="cls-2" d="M305.68,269.66a19,19,0,0,1-3.62-.12l.4,0a3.72,3.72,0,0,1-.75-.17l.35.15a1.28,1.28,0,0,1-.25-.15l.3.24a1.29,1.29,0,0,1-.17-.16l.24.3a1,1,0,0,1-.11-.17l.16.36a.68.68,0,0,1-.07-.23l0,.4v-.25l0,.4a1.89,1.89,0,0,1,.09-.34l-.15.35a2.77,2.77,0,0,1,.22-.37l-.23.31a2.37,2.37,0,0,1,.27-.28l-.3.24a1.45,1.45,0,0,1,.38-.22l-.36.15a1.92,1.92,0,0,1,.32-.09l-.4.06a1.78,1.78,0,0,1,.4,0l-.4-.05a2.72,2.72,0,0,1,.62.17l-.36-.15a4.56,4.56,0,0,1,.82.49l-.31-.24a10,10,0,0,1,.84.75,1.5,1.5,0,0,0,2.12-2.12,6.77,6.77,0,0,0-2.48-1.69,3.08,3.08,0,0,0-3.09.65,2.81,2.81,0,0,0-.86,2.77,2.4,2.4,0,0,0,1.18,1.43,5.17,5.17,0,0,0,1.9.44,18.18,18.18,0,0,0,3.3.09,1.56,1.56,0,0,0,1.06-.44,1.54,1.54,0,0,0,.44-1.06,1.52,1.52,0,0,0-1.5-1.5Z" transform="translate(-16.01 -138.76)"/><path class="cls-2" d="M296.87,253.5c-.57-9.06,2.59-17.79,2.68-26.81a32.38,32.38,0,0,0-.59-6.59c-.4-2.09-1.2-4.34-.33-6.42,1.25-3,4.86-4.51,7.92-4.65l-.4-2.95a15.1,15.1,0,0,0-10.61,8.37,26.86,26.86,0,0,0-1.93,7.81,89.51,89.51,0,0,0-.7,9.26c0,1.64,2.71,2.1,2.95.4L298.1,216h-2.89a56.4,56.4,0,0,1,.33,14.74h3a64.62,64.62,0,0,0-2.31-15.63,1.52,1.52,0,0,0-2.74-.36,24.63,24.63,0,0,0-2.2,17.18,1.52,1.52,0,0,0,2.9,0,48,48,0,0,0,1.57-8.4c.13-1.39.19-2.79.19-4.19,0-.19.07-1.26-.1-1.14a7.47,7.47,0,0,1,1,0,5.24,5.24,0,0,0,1-.18c2.51-.73,4.79-2.76,6.93-4.19l7.78-5.19A1.5,1.5,0,0,0,311,206l-15.91,8.22c-1.71.89-.2,3.48,1.52,2.59l15.9-8.22L311,206l-8.2,5.46c-1.34.9-2.67,1.81-4,2.68a7,7,0,0,1-1.77.94c-.64.18-1.29,0-1.93.16-2.81.59-2.07,4.34-2.18,6.41a42.36,42.36,0,0,1-1.6,9.47h2.9a21.32,21.32,0,0,1,1.89-14.87l-2.74-.36a61,61,0,0,1,2.2,14.83,1.5,1.5,0,0,0,3,0,59,59,0,0,0-.44-15.54c-.22-1.42-2.69-1.44-2.89,0L293,231.12l2.94.4c.06-2.62.23-5.24.53-7.84a28.58,28.58,0,0,1,1.5-7.27,12.23,12.23,0,0,1,9-7.43c1.65-.34,1.29-3-.4-2.95-6.21.28-12.11,4.66-11.17,11.38.27,1.93.83,3.8,1,5.74a35.73,35.73,0,0,1,.07,5.76c-.25,3.84-1,7.63-1.58,11.42a59.43,59.43,0,0,0-1,13.17c.13,1.91,3.13,1.93,3,0Z" transform="translate(-16.01 -138.76)"/><path class="cls-2" d="M320,208.23a102.4,102.4,0,0,0,19.89-23.14c2.65-4.06,5.52-7.8,9.64-10.46A67.79,67.79,0,0,1,361.34,169c4.67-1.87,9.38-3.78,13.48-6.76,1.06-.77.89-3-.75-2.8A54.36,54.36,0,0,0,347.24,170,53.8,53.8,0,0,0,337,180.08c-3,3.86-5.36,8.13-8,12.26-2.81,4.44-6,8.79-10.43,11.7l2.05,2.05c5.18-7.45,10.37-14.9,16.16-21.9,5.61-6.79,11.84-13.56,19.15-18.56,4-2.71,8.41-4.83,13.26-5.09l-.4-2.95a81.56,81.56,0,0,0-38.4,25.6,80.17,80.17,0,0,0-7.56,10.74,1.5,1.5,0,0,0,2.59,1.51,78.68,78.68,0,0,1,32.34-30.21,76.5,76.5,0,0,1,11.83-4.75c1.56-.48,1.35-3-.4-2.94C360.05,158,352.43,164,346,170a155.5,155.5,0,0,0-18.52,21.41c-3.19,4.32-6.27,8.73-9.34,13.14-.86,1.24.83,2.85,2.05,2.06,8-5.21,12-14.08,17.11-21.76a51.74,51.74,0,0,1,21.34-18.14,50.18,50.18,0,0,1,15.48-4.29l-.76-2.79c-7.35,5.33-16.48,7.1-24.22,11.7a32.8,32.8,0,0,0-10.17,9.73c-2.92,4.19-5.52,8.54-8.74,12.52a92.41,92.41,0,0,1-12.35,12.51c-1.48,1.24.65,3.35,2.12,2.12Z" transform="translate(-16.01 -138.76)"/><path class="cls-2" d="M405.94,154.28a23.73,23.73,0,0,1,5.25,16.87c-.15,1.92,2.85,1.91,3,0a26.7,26.7,0,0,0-6.13-19,1.5,1.5,0,0,0-2.12,2.12Z" transform="translate(-16.01 -138.76)"/><path class="cls-2" d="M461.31,428.44a112.74,112.74,0,0,1,3.92,13.19c.83,3.59.83,8.26,4,10.69a1.51,1.51,0,0,0,2.2-.9,49.9,49.9,0,0,0,1.84-12.09,42.66,42.66,0,0,0-.23-6,3.39,3.39,0,0,0-.9-2.16c-.48-.44-1.43-.43-1.34-1.15l-2.95.4a98.62,98.62,0,0,1,1.38,16.36l2.95-.39q-2.42-10.28-5.38-20.4a1.5,1.5,0,0,0-2.89.8q3,10.13,5.38,20.39a1.5,1.5,0,0,0,2.94-.4,103.9,103.9,0,0,0-1.48-17.16,1.5,1.5,0,0,0-1.65-1.08,1.53,1.53,0,0,0-1.3,1.48,3.07,3.07,0,0,0,.49,2.06,2.93,2.93,0,0,0,.85.87c.22.15.81.26.93.44a5.3,5.3,0,0,1,.07,1c0,.47.07.93.09,1.4.05,1,.06,2,.05,3a46.77,46.77,0,0,1-1.74,11.75l2.2-.89c-1.17-.9-1.37-2.76-1.63-4.1-.39-2.07-.82-4.12-1.32-6.16a112.64,112.64,0,0,0-3.6-11.82c-.65-1.8-3.55-1-2.89.79Z" transform="translate(-16.01 -138.76)"/><path class="cls-4" d="M284.24,238.8c-7.65-3.86-17.38,1.15-21.7,8.55s-4.65,16.39-4.91,25-.66,17.56-5.09,24.9c-6.85,11.35-21.09,15.45-34.09,18s-27.19,5.13-36,15c-13.26,15-8.49,40.46-22.36,54.89-8.83,9.18-23,11.12-35.58,9.34" transform="translate(-16.01 -138.76)"/><path class="cls-4" d="M34.37,485.91c11.89,2.61,25.14-4.37,29.73-15.64,2.63-6.49,2.78-14.23,7.45-19.45,6.78-7.58,18.81-5.74,28.79-7.72a35.4,35.4,0,0,0,26-22.4" transform="translate(-16.01 -138.76)"/><path class="cls-4" d="M209.39,370.41c-.25-8,6-14.9,13.25-18.22s15.37-3.88,23.26-4.95,16.09-2.89,22.1-8.12c6.66-5.8,9.46-14.71,12.82-22.87s8.34-16.71,16.75-19.42" transform="translate(-16.01 -138.76)"/><path class="cls-4" d="M437.53,250.08c.31,13.22,8.47,24.77,16,35.64s15,23.12,13.78,36.28c-1.16,12.2-9.73,22.74-10.85,34.94-.88,9.61,3,18.92,5.32,28.28s2.92,20.29-3.35,27.62" transform="translate(-16.01 -138.76)"/><path class="cls-4" d="M422.61,314.63a23.1,23.1,0,0,1,2.79,28.06c-2.82,4.29-7,7.52-9.85,11.83a22.39,22.39,0,0,0-1.63,21" transform="translate(-16.01 -138.76)"/><path class="cls-4" d="M392.12,156.52c-12.24-1.19-24.64-2.38-36.79-.49s-24.24,7.21-31.83,16.89c-3.83,4.91-6.38,10.72-10.23,15.61s-9.67,9-15.85,8.23" transform="translate(-16.01 -138.76)"/><path class="cls-5" d="M312.72,273.3c-.14-.49-.28-1-.44-1.47a4.26,4.26,0,0,0-2.3-3.77,23.06,23.06,0,0,0-4.59-1.25,8.53,8.53,0,0,1-3.65-2.26l-.23-.21a16.85,16.85,0,0,1-4.31-7.91c-3.1-11.77,2.82-23.67.73-35.66a9.94,9.94,0,0,1,5.19-10.29c3.16-1.58,6.9-1.32,10.35-2.12,7.95-1.83,13.43-8.94,17.86-15.78s8.35-13.77,15.58-17.54c11.59-6,23.72-12.23,36.79-12.48,10.34-.21,20.7,3,29.91,7.69,0,.1.05.2.07.3-.72-5-2-9.9-4.52-14.09a53.64,53.64,0,0,1,7.62,14.39c11.25,5.3,19.18,17.38,24.13,28.79,3.46,8,4.69,20,5.14,26.42.31,4.46.81,9-.28,13.29-1.18,4.72-3.49,9.07-5.78,13.36-1.48,2.79-2,6-3.49,8.79-1.8,8.23-.08,16.16,0,24.7.15,13.18-9.22,24.75-17.13,35.29s-17.31,19.87-26.66,29.16l0,.38c-8.34.87-64.61-29.65-69.09-35.76s-6.37-13.87-7.51-21.43C315.14,287,314.59,280,312.72,273.3Z" transform="translate(-16.01 -138.76)"/><path class="cls-5" d="M406.34,152.74a22.77,22.77,0,0,1,2.82,3.72C408.23,155.17,407.28,153.92,406.34,152.74Z" transform="translate(-16.01 -138.76)"/><path class="cls-5" d="M312.28,271.83c.16.49.3,1,.44,1.47l-.47-1.17A1.53,1.53,0,0,0,312.28,271.83Z" transform="translate(-16.01 -138.76)"/><path class="cls-5" d="M347.9,230.34" transform="translate(-16.01 -138.76)"/><path class="cls-5" d="M361,234.71" transform="translate(-16.01 -138.76)"/><path class="cls-5" d="M313.89,274a96.58,96.58,0,0,0,4.36,31.68" transform="translate(-16.01 -138.76)"/><path class="cls-5" d="M313.37,278.35a60.37,60.37,0,0,1,.47-7.72" transform="translate(-16.01 -138.76)"/><path class="cls-5" d="M384.51,346.08l5.78,4.8" transform="translate(-16.01 -138.76)"/><path class="cls-5" d="M313,269.89a61.47,61.47,0,0,0,6.55,42.92,1.5,1.5,0,0,0,2.59-1.51,58.22,58.22,0,0,1-6.24-40.61c.4-1.89-2.49-2.69-2.9-.8Z" transform="translate(-16.01 -138.76)"/><path class="cls-5" d="M314.57,280.35c-.84-2.13-.38-4.35.12-6.51l1.74-7.48c.44-1.88-2.46-2.68-2.89-.8-.62,2.66-1.26,5.32-1.86,8-.55,2.48-1,5.15,0,7.58a1.54,1.54,0,0,0,1.85,1.05,1.5,1.5,0,0,0,1-1.84Z" transform="translate(-16.01 -138.76)"/><path class="cls-5" d="M383,348.1a41.88,41.88,0,0,1-.16,7.17,1.5,1.5,0,0,0,1.5,1.5,1.54,1.54,0,0,0,1.5-1.5,41.88,41.88,0,0,0,.16-7.17,1.54,1.54,0,0,0-1.5-1.5,1.52,1.52,0,0,0-1.5,1.5Z" transform="translate(-16.01 -138.76)"/><path class="cls-5" d="M381.73,345.92v8.41a1.5,1.5,0,0,0,3,0v-8.41a1.5,1.5,0,0,0-3,0Z" transform="translate(-16.01 -138.76)"/><path class="cls-5" d="M379.55,347.17V349a1.54,1.54,0,0,0,.44,1.06,1.23,1.23,0,0,0,.49.32,1.11,1.11,0,0,0,.57.12,1.46,1.46,0,0,0,1.06-.44,1.54,1.54,0,0,0,.44-1.06v-1.86a1.5,1.5,0,0,0-.44-1.06,1,1,0,0,0-.48-.31,1.06,1.06,0,0,0-.58-.13,1.47,1.47,0,0,0-1.06.44,1.54,1.54,0,0,0-.44,1.06Z" transform="translate(-16.01 -138.76)"/><path class="cls-5" d="M385.73,349.56c3.48-.14,6.59,2.07,10.12,1.57,3.12-.44,5.35-2.76,6.95-5.32,1.89-3.05,3.29-6.41,5.05-9.53a117.11,117.11,0,0,1,6.63-10.44c1.11-1.58-1.49-3.08-2.59-1.51-2.16,3-4.19,6.18-6.05,9.42-1.76,3.05-3.23,6.25-4.92,9.33-1.22,2.21-2.91,4.83-5.67,5.12a12.13,12.13,0,0,1-4.63-.84,15.14,15.14,0,0,0-4.89-.8c-1.93.08-1.94,3.08,0,3Z" transform="translate(-16.01 -138.76)"/><path class="cls-5" d="M398.29,347.66l4.51-5.89a1.52,1.52,0,0,0,.15-1.16,1.63,1.63,0,0,0-.54-.78,1.52,1.52,0,0,0-2,.12,43.42,43.42,0,0,0-5.83,6.14,1.63,1.63,0,0,0-.44,1.06,1.5,1.5,0,0,0,2.56,1.06,44,44,0,0,1,5.83-6.14l-2.35-1.82-4.51,5.9a1.45,1.45,0,0,0-.15,1.15,1.51,1.51,0,0,0,.68.9,1.56,1.56,0,0,0,1.16.15,1.76,1.76,0,0,0,.9-.69Z" transform="translate(-16.01 -138.76)"/><path class="cls-5" d="M444.49,223.36a1.5,1.5,0,0,0,0-3,1.5,1.5,0,0,0,0,3Z" transform="translate(-16.01 -138.76)"/><path class="cls-6" d="M459,473.31a593.08,593.08,0,0,0-161.4,10c-1.84-12.26-3.5-24.57-4.27-37,53.47,0,107.27,6.83,160.05-2.34C457.79,453.37,458.91,462.7,459,473.31Z" transform="translate(-16.01 -138.76)"/><path class="cls-7" d="M454.83,421.84" transform="translate(-16.01 -138.76)"/><path class="cls-5" d="M271.63,371l-.17.45q2.52.35,5.07.57l1.63-.05A23.64,23.64,0,0,1,271.63,371Z" transform="translate(-16.01 -138.76)"/><path class="cls-8" d="M411.4,382.37a74.24,74.24,0,0,1-24.47-1.4c-.17-10.23.79-20.34-.63-30.47-10-5.41-20.56-10.09-30.55-15.5-14-7.58-28.53-15.64-37.5-28.79-6.06-8.89-4.1-19.64-7.22-29.79a14.53,14.53,0,0,1-.3,1.46v0c0,.07,0,.14,0,.21,0,.28,0,.56,0,.85a456,456,0,0,1-.3,60.74c-.62,9.09-1.87,19-8.34,25.4-3.82,3.81-9.09,5.92-14.43,6.7a48.12,48.12,0,0,1-11.06.18,47.75,47.75,0,0,1-5.38-.26c12.59,22.2,20.94,48.24,19.57,73.72-.11,2.16.47,4.35.58,6.52,37.87-2.81,76-2.5,114-.6,15.68.78,31.68,1.94,46.84-2.11C443.51,424.7,429.54,401,411.4,382.37Z" transform="translate(-16.01 -138.76)"/><path class="cls-8" d="M217.6,503.76c3.72.57,7.17-1.85,10.09-4.18,4.76-3.79,9.49-7.6,14.11-11.53q1.66-1.41,3.3-2.85c.33-.29,1-1.14,1.48-1.25s.79.21,1.17.69a36.77,36.77,0,0,1,6.17,11.91c.54,1.8.59,4.06,1.63,5.67a3.9,3.9,0,0,0,3.09,1.62,16,16,0,0,0,2.4,0c5.14-.28,9.83.54,15,.17a61.11,61.11,0,0,0,1.23-9.38c.23-2.68.4-5.36.53-8.05q.38-8.07.17-16.14a221.74,221.74,0,0,0-3.18-32.11q-1.23-7.08-2.91-14.08c-4.26-17.67-10.68-34.86-20.5-50.27-.45-.71-.37-1.8-1.2-2-25.71,3-50.37,13.86-68.6,31.86-12.72,12.57-25.71,22.33-38.73,34.59-9.23,8.7-19.18,15.91-28.87,24.11-16.18,13.68-32.35,27.38-48.34,41.27" transform="translate(-16.01 -138.76)"/><path class="cls-9" d="M274.14,504.71c-.47-11.42-1.64-22.36-1.35-33.78a206.62,206.62,0,0,0-22.35-98.48c-.49-1-1.05-1.67-1.48-2.66,7.65-1.27,16.23-2.34,22.54,2.17,4.91,3.5,7.19,9.55,9,15.3a278.27,278.27,0,0,1,12.21,61.62c.95,11.43,2.44,20.94,3.46,32.37,46.13-9.68,93.95-11.69,141-9.13,8,.44,12.81-.31,20.79-.12-7.15-34.36-22.14-65.69-46.64-90.81,3.44,0,15.2.81,18.64.81,31,28.91,43.29,66.64,46,107,.2,3,1,13,0,15" transform="translate(-16.01 -138.76)"/></svg>