<?xml version="1.0" encoding="utf-8"?>
<!-- Generator: Adobe Illustrator 25.1.0, SVG Export Plug-In . SVG Version: 6.00 Build 0)  -->
<svg version="1.1" id="Lag_2_1_" xmlns="http://www.w3.org/2000/svg" xmlns:xlink="http://www.w3.org/1999/xlink" x="0px" y="0px"
	 viewBox="0 0 1200 3607.5" style="enable-background:new 0 0 1200 3607.5;" xml:space="preserve">
<style type="text/css">
	.st0{fill:none;stroke:#E2DECF;stroke-width:120;}
</style>
<g>
	
		<image style="overflow:visible;" width="1189" height="2323" xlink:href="73E86287EC1CBFC3.png"  transform="matrix(1 0 0 1 9 55)">
	</image>
</g>
<path class="st0" d="M294.8,2282.9c-22.6-19.9-116.7,15.3-133.2,40.4s-17.6,57-18,87.1c-0.6,45.4,2,106.7,25.1,144.9
	c38.2,62.9,119.4,83.1,192.8,89.1c224.4,18.2,431.3-42.1,639.3,44.1c51.5,21.3,105.8,62.8,101.8,118.4
	c-2.7,36.7-31.8,67.2-65.4,82.3c-33.5,15.1-71.2,17.7-107.9,20.2c-150.6,10.2-301.1,21.7-451.5,34.3
	c-76.5,6.4-160.4,16.7-212.3,73.2c-68.5,74.5-43.7,205.5,36,267.8c53.1,41.4,121.6,56.8,188.1,67.3c185.7,29.2,613.1-2.4,561.8,0.3"
	/>
</svg>
