<svg id="Layer_2" data-name="Layer 2" xmlns="http://www.w3.org/2000/svg" viewBox="0 0 527.83 385.95"><defs><style>.cls-1{fill:#009b48;}.cls-2{fill:#009948;}.cls-3{fill:#009e54;}</style></defs><path class="cls-1" d="M250,416.2c-58.39-75.41-97.95-162.38-164.18-231.48l16.65-13.84a929,929,0,0,0,92.15,100.34c4.73,4.45,9.93,8.49,14,13.47,4.67,5.65,10,10.79,14.32,16.66,6.38,8.75,10.23,14.61,20.92,18.78" transform="translate(-11.04 -104.59)"/><path class="cls-1" d="M122.07,113.53a23.15,23.15,0,0,0-7.82-8.33c-.4-.22-.82-.41-1.23-.61A177.36,177.36,0,0,1,97.22,118c-3.52,2.71-7.2,5.15-10.83,7.7s-7.06,5.2-10.66,7.7c-7.29,5.07-14.74,9.94-22.15,14.83C46.32,153,39,157.71,31.25,161.77A94.69,94.69,0,0,1,11,170a20.21,20.21,0,0,0,8.88,9c34.76-14.34,66.39-30.72,93.12-52.63C118,122.35,124.52,119.09,122.07,113.53Z" transform="translate(-11.04 -104.59)"/><path class="cls-1" d="M104.19,172.45c3.15-10.08,9.72-19,14.5-28.53s7.77-20.69,3.38-30.39c-6.83,7.58-15,14-23.22,20.46-15.39,12.09-31.16,24.39-50.09,31.36-8.64,3.18-17.83,5.2-26.06,9.17-1.45.7-3.07,1.8-2.86,3.27s2.16,2.2,3.81,2.53c22.88,4.6,47.59-1.51,69.61,5.68C93.46,186,99.22,188.36,104.19,172.45Z" transform="translate(-11.04 -104.59)"/><path class="cls-1" d="M295.38,217.72c1.6-16.77,3.52-33.59,8.32-49.85s12.63-32.05,24.93-44.75c6.53-6.74,16-13,26.21-8.79-6,15.16-17.1,28.34-23.39,43.41-8.37,20-7.71,42.09-6.95,63.49" transform="translate(-11.04 -104.59)"/><path class="cls-1" d="M342.13,114c8.66-4.7,25.95-2.5,33,4.07s10.15,15.66,12.41,24.52a214.81,214.81,0,0,1,6.06,60.27l-25.93-1.18c.9-22.53,1.72-45.55-5.65-67.1-1.09-3.18-2.5-6.4-5.22-8.69C351.25,121.21,320.24,143.49,342.13,114Z" transform="translate(-11.04 -104.59)"/><path class="cls-1" d="M242.76,217.9a53.56,53.56,0,0,1,20-11.44c9.7-3.05,20.15-3.47,30.42-3.85,50.47-1.91,101.36-3.79,151.2,3.59a19,19,0,0,1,9.89,4.09c3.46,2.49,2.92,8.84,2.92,10.57" transform="translate(-11.04 -104.59)"/><path class="cls-1" d="M460.45,266.7a81.59,81.59,0,0,1,42.37,1.8c10.29,3.25,20.21,8.83,26.55,17.61,6.12,8.48,8.39,19.18,9.21,29.62,4,50.58-33.63,105.85-79.19,127.5-2.36-9.77-6.43-36-5.34-37.64,1.46-2.13,17.56-4.72,19.86-5.87,26.16-13,43.2-42.6,41.36-71.9-.54-8.68-2.19-18.39-8.55-24.11C489.55,288.29,475.19,292.17,460.45,266.7Z" transform="translate(-11.04 -104.59)"/><path class="cls-1" d="M510.11,303c-10.32-6.08-22.9-6.35-34.85-6.45-5.17-.05-14.3,1.38-19.48,1.34,1.66-4.66,0-9.75-1-14.57s-1.28-10.59,2.32-13.95c2.75-2.56,6.84-2.86,10.58-2.86a137.11,137.11,0,0,1,24.18,2.11" transform="translate(-11.04 -104.59)"/><path class="cls-2" d="M466.61,297.11c8.91,0,17.9-2.1,26.48.39,5.16,1.51,11.6,2.25,15.21,6.65a32.14,32.14,0,0,1,5.49,11.06c4,13.18,3,27.93-1.65,40.84a84.86,84.86,0,0,1-22.22,33c-6.8,6.36-14.7,11.8-23.33,13.52a43.43,43.43,0,0,0-.36,16.85c9.67-1.76,17.29-9.87,24.25-17.59,6.4-7.1,12.84-14.25,18-22.54s8.89-17.65,12.57-26.93c2.76-6.95,5.53-14,6.37-21.59a45,45,0,0,0-11.21-34.65,39.87,39.87,0,0,0-31.1-12.87C478.32,283.57,449.21,278.94,466.61,297.11Z" transform="translate(-11.04 -104.59)"/><path class="cls-3" d="M464.33,462.06q-.51-112.41-1-224.84c-.05-9.56-.45-20.09-6.93-27.13-6.72-7.3-17.68-8.36-27.59-8.94-11.89-.69-23.77-1.39-36.19-2.6q1.68,93.57,1.17,187.15c-.09,16-.22,32.09-1.32,48.09-1,13.77-9.39,38.54-7.47,52.21.33,2.32-5.11,2.52-3.54,4.05a1.83,1.83,0,0,1,.34,0,77.46,77.46,0,0,0,8.75-.13c2.92,0,5.86,0,8.77-.15,1.12-.06,2.24-.05,3.36-.09s2.18-.25,3.29-.25c2.53,0,5,.25,7.54,0a75.59,75.59,0,0,0,13-1.92c4.7-1.23,9.48-2.21,14.14-3.63a44.15,44.15,0,0,0,6.47-2.6c.63-.3,1.27-.62,1.9-1a116.72,116.72,0,0,0,10.07-7.67c1.84-1.52,3.75-3.13,4.62-5.35A14.34,14.34,0,0,0,464.33,462.06Z" transform="translate(-11.04 -104.59)"/><path class="cls-2" d="M296.48,203c-16.51.22-33.67,1.87-47.85,10.34-3.53,2.11-6.95,4.78-8.67,8.52a24.24,24.24,0,0,0-1.69,8.46c-1.06,14.6-.91,29.26-.76,43.91.63,62,1.27,123.93,2.23,186.23a24.41,24.41,0,0,0,2.57,12.14,14.11,14.11,0,0,0,2.63,3.8,17.73,17.73,0,0,0,4.15,2.86c11.07,6,24.36,7.39,36.36,8.6a55.88,55.88,0,0,0,10.62.88c.6-.05-.54-5,.05-5" transform="translate(-11.04 -104.59)"/><path class="cls-1" d="M381.8,490l.91.07,1.53,0c.23,0,.51,0,.81.05,1.84-.05,3.68-.2,5.5-.23l3.34,0a1,1,0,0,0,.11-.41c.36-7-.72-8.34-.72-12.4,0-10.24.72-17.32.72-27.06,0-19.83-.72-42.57,0-63,1.43-40.62,0-84,0-126,0-17.28,1.05-30.78-1.68-47.85l-95.93-8.7c-2.33,36-1,67-1.39,101.55-.51,49.38.51,103.7,0,153-.11,11-.11,18.56-.11,29.57,11.78,1.95,25.29,2,37.23,1.95l49-.41A1.79,1.79,0,0,1,381.8,490Z" transform="translate(-11.04 -104.59)"/><path class="cls-2" d="M85.82,181.92c2.05-1.64-17.48-30.46-15.42-32.09,32.17,39.09,86.44,109.77,115.71,151.08q5.73,8.1,11.42,16.23c14.11,20.11,28.22,40.23,43.5,59.05a90.06,90.06,0,0,1-1.37,23.75" transform="translate(-11.04 -104.59)"/><path class="cls-2" d="M53.58,148.22C46.32,153,39,157.71,31.25,161.77a94.72,94.72,0,0,1-19.79,8.12c1.07,3.93,3.81,5.91,6.43,7.93,2.78,2.14,5,2.24,8.88,3.35,17.44,2.67,31.24.5,46.35.64,4.81,0,9.7,2.1,14.27,3.59-5.6-14.59-12.72-31.66-24-43.64Z" transform="translate(-11.04 -104.59)"/><path class="cls-3" d="M237.62,317h.12c.11,4.15.29,8.3.64,12.43-14.52-14-28-29.3-41.37-44.55C165,248.45,133,212,100.8,176.1a8.58,8.58,0,0,1,4.25-4.67l-.51-.6" transform="translate(-11.04 -104.59)"/><path class="cls-2" d="M296.59,202.56l10.24,0c-.27-6,1.95-11.69,3.92-17.3,4.06-11.58,7.19-23.48,12-34.77s11.46-22.11,21.19-29.57a59.16,59.16,0,0,1,16.6-8.77,30.37,30.37,0,0,0-26.27,5.51,46.63,46.63,0,0,0-5.13,4.91c-17.06,18.56-26.51,43.19-30.09,68.14C298.44,195,298,199.24,296.59,202.56Z" transform="translate(-11.04 -104.59)"/><path class="cls-3" d="M393.79,199a323.89,323.89,0,0,0-4.55-47.65c-1.53-9-3.54-18.12-8.58-25.7s-13.78-13.32-22.85-12.13c2.21,3.74,4.42,7.49,7,11,4.29,6,9.54,11.44,12.67,18,2.41,15.55,4.6,31.18,4.87,46.92a55,55,0,0,0,.64,9.43,47.92,47.92,0,0,0,3.67,10.19l7.57,16.84" transform="translate(-11.04 -104.59)"/><path class="cls-3" d="M323.9,201.43c-1.1-7-.13-14.08,1.23-21,3.52-17.86,9.87-35.55,21.39-49.64,4.06-5,10.71-9.93,15.49-14a6.86,6.86,0,0,1-2.5-3.85,37.44,37.44,0,0,0-16,9.27,102.21,102.21,0,0,0-13.6,15.21,88,88,0,0,0-5.89,9.59,88.9,88.9,0,0,0-4.74,11.57c-4.95,14.27-8.66,28.94-12.35,43.59" transform="translate(-11.04 -104.59)"/><path class="cls-2" d="M402,134.69" transform="translate(-11.04 -104.59)"/><path class="cls-2" d="M353.77,123.66c6.48,5.5,9.87,13.46,11.53,21.79a154.57,154.57,0,0,1,3,30.72c0,8.54-.76,17.07-.41,25.6,4.48.47,9.17-1,13.45.45.73.24,1.59.55,1.86.23-1.56-6.06-1.34-12.4-1.56-18.65s-.88-12.36-1.53-18.52l-1.46-13.69a42.88,42.88,0,0,0-1.58-8.86C375.66,138.45,361.43,112.07,353.77,123.66Z" transform="translate(-11.04 -104.59)"/></svg>